<svg xmlns="http://www.w3.org/2000/svg" width="799.9" height="159.98" viewBox="0 0 600 120"><path id="Selection" fill="#fff" stroke="#000" stroke-width="0" d="M68 29.47c18.8 11.66 18.33 47.62 0 59.57C55.14 97.42 35.99 95 21 95V24c14.7 0 34.33-2.39 47 5.47zM426 24v5h-33v26h32v5h-32v30h33v5h-39V24h39zM284.3 38.67c2.48-3.04 3.11-7.98 5.4-9.68 1.9-1.41 7.82-.99 10.3-.99v12h15v12h-15v22c.07 3.62.32 6.98 4.06 8.74 2.89 1.36 7.84-.16 10.94-.74 0 2.69.44 9.44-1.02 11.49-2.06 2.89-7.8 2.51-10.98 2.51-6.84.01-11.94.32-16.3-6.02-2.41-3.49-2.65-6.9-2.7-10.98V52h-7c.05-11.66 2.38-7.27 7.3-13.33zM57.93 77.61c9.37-7.68 9.7-29.43 0-36.96C52.16 36.21 44.79 37 38 37v45c7.08 0 14.09.43 19.93-4.39zm78.98-32.4c12.21 11.31 10.65 37.56-2.91 47.14-5.77 4.08-11.32 3.73-18 3.65-31.17-.38-33.67-48.5-7-56.47 9.4-1.54 20.55-1.13 27.91 5.68zM179 39.97c3.35-1.21 7.45-1.01 11-.97 8.23.11 13.72 2.92 16.61 11 1.92 5.34 1.39 11.38 1.39 17v28h-16V65c-.06-4.66-.48-9.46-5.05-12.03-5.7-3.2-11.63 1.63-13.42 7.03-2.37 7.16-1.53 26.53-1.53 35h-16V40h13l1 6c2.88-2.57 5.29-4.69 9-6.03zm68-.97c7.59.04 14.87 1.76 18.86 9 2.16 3.92 2.13 8.66 2.14 13v34c-11.06 0-11.44.9-14-6-2.18 2.06-4.25 4.12-7 5.43-5.32 2.54-17.13 2.45-21.96-1.08-8.68-6.35-8.35-23.24 1-28.82C233.14 60.29 243.96 61 252 61c-.1-1.69-.1-3.38-.74-4.98-4.08-10.24-18.14-1.4-21.87-2.7-3.22-1.11-4.83-7.35-5.39-10.32 10.52-4.18 11.91-4.05 23-4zm122.01 53.3c-1.68 2.23-7.34 3.39-10.01 3.61-8.44.68-18.72.83-26-3.88-9.56-6.18-11.43-16.45-10.96-27.03.31-7.06 2.31-14.42 7.43-19.53 8.31-8.32 27.75-9.28 36.44-1.26C374.15 51.82 373 60.93 373 71h-35c.52 2.18.93 4.02 2.08 6 7.02 12.07 19.83 5.72 29.92 3 0 2.7.49 10.33-.99 12.3zM451 41.46c7.15-1.29 17.59-1.44 22.57 4.64 2.98 3.63 3.37 8.41 3.43 12.9v36c-5.03-.88-4.83-2.21-5-7-7.47 7.06-9.92 8.13-20 8-3.44-.05-5.94-.14-8.98-2.01-9.74-5.98-9.06-21.38 1.98-26.99 7.47-3.8 18.72-3 27-3-.13-2.88-.33-5.18-1.04-8-3.98-15.72-17.86-8.72-27.96-6-1.48-6.83 1.74-7.41 8-8.54zm63 48.28c5.07-1.88 9.46-6.4 5.55-11.7-6.45-8.75-23.1-8.35-28.1-18.06-3.81-7.4-.14-15.18 7.55-17.87 7.43-2.6 20.82-1.16 28 1.89l-2 5c-5.7-.88-11.13-3.32-17-2.9-6.64.46-15.81 5.66-8.85 12.69 8.01 8.1 30.51 8.27 28.48 24.21-2.21 17.46-26.72 13.68-38.63 11v-7c8.33 2.24 16.16 6.01 25 2.74zm64.98 2.75c-2.84 4-14.45 3.56-18.98 3.51-15.89-.2-23.56-13.19-22.9-28 .31-7.01 2.31-15.6 7.23-20.82 7.32-7.77 23.77-8.91 31.33-.97 5.6 5.88 6.33 16.09 6.34 23.79h-39c.77 3.07 1.28 7.3 2.57 10 1.23 2.58 3.29 4.93 5.45 6.78 9.26 7.94 18.9 2.77 28.98 1.22-.13 1.56-.06 3.13-1.02 4.49zm-10.02-43.98c-2.68-1.99-5.69-2.55-8.96-2.45-10.76.33-15.53 9.26-16 18.94h32c-1.59-6.47-1.02-12-7.04-16.49zM339 61h19c-1.37-14.6-18.15-14.47-19 0zM108.34 76c1.98 5.75 7.84 9.19 13.64 6.56 8.72-3.95 9.43-23.62 1.91-28.96-2.95-2.1-6.56-1.71-9.87-1-7.87 4.35-8.36 15.59-5.68 23.4zM464 69c-4.4.01-6.66-.04-11 1.16-11.82 3.26-12.96 13.23-6.86 18.41 5.84 4.95 19.67 2.75 23.85-7.57 1.35-3.31 1.01-8.38 1.01-12h-7zm-220 1.81c-1.53.31-3.54.74-4.89 1.5-4.33 2.43-5.1 8.08-1.68 10.83 4.55 3.66 11.96-.39 13.83-5.16.88-2.21.73-5.58.74-7.98-3.27.07-4.74.14-8 .81z"/></svg>